{
    "asset" : {
        "generator" : "Khronos glTF Blender I/O v3.3.32",
        "version" : "2.0"
    },
    "scene" : 0,
    "scenes" : [
        {
            "name" : "Scene",
            "nodes" : [
                0
            ]
        }
    ],
    "nodes" : [
        {
            "mesh" : 0,
            "name" : "Cube.001",
            "scale" : [
                1.4110790491104126,
                0.04105259105563164,
                0.5822932124137878
            ],
            "translation" : [
                -0.024199068546295166,
                1.2955002784729004,
                0.3414567708969116
            ]
        }
    ],
    "materials" : [
        {
            "doubleSided" : true,
            "name" : "Material.001",
            "pbrMetallicRoughness" : {}
        }
    ],
    "meshes" : [
        {
            "name" : "Cube.003",
            "primitives" : [
                {
                    "attributes" : {
                        "POSITION" : 0,
                        "NORMAL" : 1,
                        "TEXCOORD_0" : 2
                    },
                    "indices" : 3,
                    "material" : 0
                }
            ]
        }
    ],
    "accessors" : [
        {
            "bufferView" : 0,
            "componentType" : 5126,
            "count" : 4454,
            "max" : [
                1.035839557647705,
                19.273834228515625,
                1.0082426071166992
            ],
            "min" : [
                -1.0510621070861816,
                -9.122498512268066,
                -1.3163448572158813
            ],
            "type" : "VEC3"
        },
        {
            "bufferView" : 1,
            "componentType" : 5126,
            "count" : 4454,
            "type" : "VEC3"
        },
        {
            "bufferView" : 2,
            "componentType" : 5126,
            "count" : 4454,
            "type" : "VEC2"
        },
        {
            "bufferView" : 3,
            "componentType" : 5123,
            "count" : 20136,
            "type" : "SCALAR"
        }
    ],
    "bufferViews" : [
        {
            "buffer" : 0,
            "byteLength" : 53448,
            "byteOffset" : 0,
            "target" : 34962
        },
        {
            "buffer" : 0,
            "byteLength" : 53448,
            "byteOffset" : 53448,
            "target" : 34962
        },
        {
            "buffer" : 0,
            "byteLength" : 35632,
            "byteOffset" : 106896,
            "target" : 34962
        },
        {
            "buffer" : 0,
            "byteLength" : 40272,
            "byteOffset" : 142528,
            "target" : 34963
        }
    ],
    "buffers" : [
        {
            "byteLength" : 182800,
            "uri" : "data:application/octet-stream;base64,"
        }
    ]
}
